<svg width="30" height="30" viewBox="0 0 30 30" fill="none" xmlns="http://www.w3.org/2000/svg">
<path d="M9.49597 18.75C6.83468 20.59 6.83469 22.7016 9.49598 24.5303C12.5202 26.6201 17.4799 26.6201 20.504 24.5303C23.1653 22.6903 23.1653 20.5786 20.504 18.75C17.4908 16.6715 12.5312 16.6715 9.49597 18.75Z" fill="white"/>
<path d="M14.9945 13.6721C14.8845 13.6608 14.7526 13.6608 14.6316 13.6721C12.0143 13.5813 9.93584 11.3665 9.93584 8.64056C9.93584 5.85788 12.1133 3.59766 14.8185 3.59766C17.5128 3.59766 19.7012 5.85788 19.7012 8.64056C19.6902 11.3665 17.6118 13.5813 14.9945 13.6721Z" fill="white"/>
<path d="M9.49597 18.75C6.83468 20.59 6.83469 22.7016 9.49598 24.5303C12.5202 26.6201 17.4799 26.6201 20.504 24.5303C23.1653 22.6903 23.1653 20.5786 20.504 18.75C17.4908 16.6715 12.5312 16.6715 9.49597 18.75Z" stroke="white" stroke-width="1.5" stroke-linecap="round" stroke-linejoin="round"/>
<path d="M14.9945 13.6721C14.8845 13.6608 14.7526 13.6608 14.6316 13.6721C12.0143 13.5813 9.93584 11.3665 9.93584 8.64056C9.93584 5.85788 12.1133 3.59766 14.8185 3.59766C17.5128 3.59766 19.7012 5.85788 19.7012 8.64056C19.6902 11.3665 17.6118 13.5813 14.9945 13.6721Z" stroke="white" stroke-width="1.5" stroke-linecap="round" stroke-linejoin="round"/>
</svg>
