<svg width="29" height="29" viewBox="0 0 29 29" fill="none" xmlns="http://www.w3.org/2000/svg">
<path d="M19.3333 20.5417V16.9167H10.875V12.0834H19.3333V8.45835L25.375 14.5L19.3333 20.5417ZM16.9167 2.41669C17.5576 2.41669 18.1723 2.6713 18.6255 3.12451C19.0787 3.57773 19.3333 4.19241 19.3333 4.83335V7.25002H16.9167V4.83335H6.04167V24.1667H16.9167V21.75H19.3333V24.1667C19.3333 24.8076 19.0787 25.4223 18.6255 25.8755C18.1723 26.3287 17.5576 26.5834 16.9167 26.5834H6.04167C5.40073 26.5834 4.78604 26.3287 4.33283 25.8755C3.87961 25.4223 3.625 24.8076 3.625 24.1667V4.83335C3.625 4.19241 3.87961 3.57773 4.33283 3.12451C4.78604 2.6713 5.40073 2.41669 6.04167 2.41669H16.9167Z" fill="white"/>
</svg>
