<svg width="30" height="22" viewBox="0 0 30 22" fill="none" xmlns="http://www.w3.org/2000/svg">
<path d="M2.7907 21.6C2.02326 21.6 1.36651 21.3358 0.820465 20.8076C0.273488 20.2784 0 19.6425 0 18.9V2.7C0 1.9575 0.273488 1.3221 0.820465 0.7938C1.36651 0.2646 2.02326 0 2.7907 0H11.1628L13.9535 2.7H25.1163C25.8837 2.7 26.5409 2.9646 27.0879 3.4938C27.634 4.0221 27.907 4.6575 27.907 5.4H12.8023L10.0116 2.7H2.7907V18.9L6.13953 8.1H30L26.407 19.6763C26.2209 20.2613 25.8781 20.7284 25.3786 21.0776C24.8781 21.4259 24.3256 21.6 23.7209 21.6H2.7907ZM5.72093 18.9H23.7209L26.2326 10.8H8.23256L5.72093 18.9Z" fill="white"/>
</svg>
