<svg width="27" height="30" viewBox="0 0 27 30" fill="none" xmlns="http://www.w3.org/2000/svg">
<path d="M17.8305 11.415V4.5H19.2697V1.5H7.75651V4.5H9.19565V11.415L0.762264 26.235C0.632717 26.4627 0.563308 26.7222 0.56109 26.9869C0.558872 27.2516 0.623923 27.5123 0.749634 27.7423C0.875346 27.9724 1.05724 28.1637 1.27684 28.2968C1.49644 28.4298 1.74591 28.5 1.99993 28.5H25.0263C25.2803 28.5 25.5297 28.4298 25.7493 28.2968C25.9689 28.1637 26.1508 27.9724 26.2765 27.7423C26.4023 27.5123 26.4673 27.2516 26.4651 26.9869C26.4629 26.7222 26.3935 26.4627 26.2639 26.235L17.8305 11.415ZM11.7861 12.735C11.9729 12.4754 12.0739 12.1596 12.0739 11.835V4.5H14.9522V11.835C14.9523 12.1042 15.0219 12.3685 15.1537 12.6L18.2335 18H8.79269L11.7861 12.735Z" fill="white"/>
</svg>
