<svg width="31" height="30" viewBox="0 0 31 30" fill="none" xmlns="http://www.w3.org/2000/svg">
<path d="M10.5674 1.5V26.9225H15.4519V1.5H10.5674ZM1.55005 4.33786V15.5711H4.43061V4.33786H1.55005ZM11.4441 5.69767H12.5713V24.6167H11.4441V5.69767ZM19.505 6.15232L16.6698 6.63262L20.5413 27L23.3765 26.5197L19.505 6.15232ZM5.55778 7.17572V23.1387H9.44027V7.17572H5.55778ZM23.1857 8.87134L21.4577 9.56738L21.8017 10.3287L23.5297 9.63266L23.1857 8.87134ZM23.9722 10.6115L22.244 11.3075L22.5881 12.0688L24.316 11.3728L23.9721 10.6115H23.9722ZM24.7584 12.3517L23.0304 13.0475L29.2721 26.8601L31 26.1641L24.7584 12.3517H24.7584ZM1.55005 16.6353V18.4089H4.43061V16.6353H1.55005ZM13.448 17.0491H14.5752V24.6167H13.448V17.0491ZM1.55005 19.4731V26.9225H4.43061V19.4731H1.55005ZM5.55778 24.2029V26.9225H9.44027V24.2029H5.55778Z" fill="white"/>
</svg>
