<svg width="30" height="29" viewBox="0 0 30 29" fill="none" xmlns="http://www.w3.org/2000/svg">
<path d="M0.40625 11.295C-0.276042 10.1507 -0.078125 8.54357 0.848958 7.70143L7.44271 1.70357C8.65625 0.597857 10.1302 0 11.6406 0H28.3333C29.2552 0 30 0.919286 30 2.05714V6.17143C30 7.30929 29.2552 8.22857 28.3333 8.22857H26.4167L24.0781 10.5429C22.8958 11.7129 21.4271 12.3429 19.9115 12.3429H11.6667C10.7448 12.3429 10 11.4236 10 10.2857C10 9.14786 10.7448 8.22857 11.6667 8.22857H15.8333C16.2917 8.22857 16.6667 7.76571 16.6667 7.2C16.6667 6.63429 16.2917 6.17143 15.8333 6.17143H9.55208L3.31771 11.8414C2.39062 12.6836 1.08854 12.4393 0.40625 11.295ZM29.5938 17.505C30.276 18.6493 30.0781 20.2564 29.151 21.0986L22.5573 27.0964C21.3385 28.2021 19.8698 28.8 18.3542 28.8H1.66667C0.744792 28.8 0 27.8807 0 26.7429V22.6286C0 21.4907 0.744792 20.5714 1.66667 20.5714H3.58333L5.92187 18.2571C7.10417 17.0871 8.57292 16.4571 10.0885 16.4571H18.3333C19.2552 16.4571 20 17.3764 20 18.5143C20 19.6521 19.2552 20.5714 18.3333 20.5714H14.1667C13.7083 20.5714 13.3333 21.0343 13.3333 21.6C13.3333 22.1657 13.7083 22.6286 14.1667 22.6286H20.4479L26.6823 16.9586C27.6094 16.1164 28.9115 16.3607 29.5938 17.505Z" fill="white"/>
</svg>
