<svg width="30" height="30" viewBox="0 0 30 30" fill="none" xmlns="http://www.w3.org/2000/svg">
<path d="M30 11.2728C30.0006 10.8057 29.8934 10.3469 29.6893 9.94279C29.4851 9.5387 29.1913 9.20383 28.8377 8.97222L16.2018 0.372064C15.8377 0.128396 15.4236 0 15.002 0C14.5804 0 14.1663 0.128396 13.8022 0.372064L1.1476 8.97222C0.797902 9.21019 0.508216 9.54841 0.307009 9.95365C0.105803 10.3589 0 10.8172 0 11.2835C0 11.7498 0.105803 12.2082 0.307009 12.6134C0.508216 13.0186 0.797902 13.3568 1.1476 13.5948L4.74712 16.0029V22.0445C4.74928 22.5166 4.85734 22.9802 5.06091 23.3907C5.26447 23.8011 5.55669 24.1445 5.90946 24.388L13.8771 29.6556C14.2329 29.8815 14.6329 30 15.0395 30C15.4461 30 15.8461 29.8815 16.2018 29.6556L24.1695 24.388C24.5223 24.1445 24.8145 23.8011 25.0181 23.3907C25.2216 22.9802 25.3297 22.5166 25.3319 22.0445V15.9384L27.6566 14.3688V20.2169H30V11.2728ZM23.0072 22.023L15.002 27.3121L7.09055 22.0445V17.5939L13.8022 22.1735C14.1676 22.4129 14.5811 22.5389 15.002 22.5389C15.4229 22.5389 15.8364 22.4129 16.2018 22.1735L22.9884 17.5294L23.0072 22.023ZM15.002 19.8514L2.34744 11.2513L15.002 2.62961L27.6566 11.2298L15.002 19.8514Z" fill="white"/>
</svg>
