<svg width="30" height="27" viewBox="0 0 30 27" fill="none" xmlns="http://www.w3.org/2000/svg">
<path d="M14.9946 14.0627C14.8876 14.0514 14.7592 14.0514 14.6415 14.0627C12.0951 13.9725 10.073 11.7734 10.073 9.0669C10.073 6.30398 12.1914 4.05981 14.8234 4.05981C17.4446 4.05981 19.5737 6.30398 19.5737 9.0669C19.563 11.7734 17.5409 13.9725 14.9946 14.0627Z" fill="white"/>
<path d="M9.64524 18.2241C7.05608 20.051 7.05608 23.0282 9.64524 24.8438C12.5875 26.9188 17.4127 26.9188 20.355 24.8438C22.9441 23.0169 22.9441 20.0397 20.355 18.2241C17.4234 16.1603 12.5982 16.1603 9.64524 18.2241Z" fill="white"/>
<path opacity="0.4" d="M22.6979 10.0029C22.5909 9.99162 22.4625 9.99162 22.3449 10.0029C19.7985 9.91268 17.7764 7.71362 17.7764 5.00709C17.7764 2.24417 19.8948 0 22.5267 0C25.148 0 27.2771 2.24417 27.2771 5.00709C27.2664 7.71362 25.2443 9.91268 22.6979 10.0029Z" fill="white"/>
<path opacity="0.4" d="M17.3484 14.1641C14.7592 15.991 14.7592 18.9682 17.3484 20.7839C20.2906 22.8589 25.1159 22.8589 28.0581 20.7839C30.6473 18.957 30.6473 15.9798 28.0581 14.1641C25.1266 12.1004 20.3013 12.1004 17.3484 14.1641Z" fill="white"/>
<path opacity="0.4" d="M7.29143 10.0029C7.18443 9.99162 7.05605 9.99162 6.93836 10.0029C4.39199 9.91268 2.36987 7.71362 2.36987 5.00709C2.36987 2.24417 4.48828 0 7.12024 0C9.7415 0 11.8706 2.24417 11.8706 5.00709C11.8599 7.71362 9.83779 9.91268 7.29143 10.0029Z" fill="white"/>
<path opacity="0.4" d="M1.94187 14.1641C-0.647291 15.991 -0.647291 18.9682 1.94187 20.7839C4.88411 22.8589 9.70937 22.8589 12.6516 20.7839C15.2408 18.957 15.2408 15.9798 12.6516 14.1641C9.72007 12.1004 4.8948 12.1004 1.94187 14.1641Z" fill="white"/>
</svg>
